<?xml version="1.0" encoding="UTF-8" standalone="no"?>
<svg
   version="1.0"
   width="180"
   height="180"
   viewBox="0 0 135.00003 135.00003"
   preserveAspectRatio="xMidYMid"
   id="svg7190"
   sodipodi:docname="cloud-reverse.svg"
   inkscape:version="1.2.2 (732a01da63, 2022-12-09)"
   inkscape:export-filename="cloud-reverse-128.png"
   inkscape:export-xdpi="68.26667"
   inkscape:export-ydpi="68.26667"
   xmlns:inkscape="http://www.inkscape.org/namespaces/inkscape"
   xmlns:sodipodi="http://sodipodi.sourceforge.net/DTD/sodipodi-0.dtd"
   xmlns="http://www.w3.org/2000/svg"
   xmlns:svg="http://www.w3.org/2000/svg">
  <defs
     id="defs7194" />
  <sodipodi:namedview
     id="namedview7192"
     pagecolor="#000000"
     bordercolor="#000000"
     borderopacity="0.25"
     inkscape:showpageshadow="2"
     inkscape:pageopacity="0"
     inkscape:pagecheckerboard="0"
     inkscape:deskcolor="#d1d1d1"
     inkscape:document-units="px"
     showgrid="false"
     inkscape:zoom="2"
     inkscape:cx="228.75"
     inkscape:cy="167.5"
     inkscape:window-width="1920"
     inkscape:window-height="1009"
     inkscape:window-x="1912"
     inkscape:window-y="-8"
     inkscape:window-maximized="1"
     inkscape:current-layer="svg7190" />
  <metadata
     id="metadata7184">
Created by potrace 1.15, written by Peter Selinger 2001-2017
</metadata>
  <g
     transform="matrix(0.1,0,0,-0.1,-480.68858,446.71399)"
     fill="#000000"
     stroke="none"
     id="g7188"
     style="fill:#ff0000;stroke:#000000;stroke-width:8;stroke-dasharray:none;stroke-opacity:1" />
  <g
     transform="matrix(-0.03923679,0,0,-0.03923679,499.32007,265.60249)"
     fill="#000000"
     stroke="none"
     id="g7565"
     style="fill:none;stroke:#6600ff;stroke-width:722.434;stroke-dasharray:none;stroke-opacity:1" />
  <path
     id="path8382"
     style="color:#000000;fill:#b380ff;stroke-width:0.345948;-inkscape-stroke:none"
     d="M 64.933712,18.784376 C 45.69293,19.062841 28.744168,31.086663 21.902196,48.743009 c -3.419859,1.086555 -6.563707,2.788831 -9.263571,5.155774 -7.23e-4,6.89e-4 -0.0013,0.0013 -0.0017,0.0017 -7.4456958,6.514393 -10.6487058,17.219402 -8.4978568,27.22871 1.51e-4,6.9e-4 3.53e-4,0.0013 5.041e-4,0.0017 3.29e-5,2.02e-4 -5e-5,6.9e-4 0,0.001 2.1893919,10.206754 9.9730987,18.403075 20.0225817,21.087297 l 0.0084,0.002 0.0067,0.002 c 2.359095,0.62165 4.687091,0.9 7.345486,0.9 4.825206,0 9.199672,-1.10408 13.854298,-3.393263 4.960864,-2.428103 9.841904,-6.086152 24.816014,-20.759919 9.31938,-8.990416 15.71423,-14.401014 20.45586,-17.555162 4.32538,-2.877246 7.10379,-3.901212 10.092138,-4.414389 -2.107038,-0.970923 -3.458478,-3.077025 -3.463198,-5.396989 0.003,-1.28662 0.42333,-2.537536 1.19697,-3.565569 -3.96742,0.802293 -8.13244,2.42938 -12.96848,5.646317 -5.58616,3.715917 -12.25934,9.438552 -21.75927,18.603158 l -0.0134,0.01345 -0.0134,0.01344 C 48.876322,86.861319 45.202421,89.478784 41.291047,91.392601 l -0.005,0.0017 -0.0034,0.0017 c -3.786521,1.862823 -6.171274,2.441561 -9.760199,2.441561 -2.089133,0 -3.317584,-0.156429 -4.972327,-0.591895 -6.614719,-1.769982 -11.884733,-7.3069 -13.333378,-14.063583 l -4.88e-4,-0.0014 v -0.001 c -1.431271,-6.657719 1.065401,-14.383644 5.535322,-18.29356 l 0.0034,-0.0017 0.0017,-0.0017 c 1.964779,-1.723347 4.095683,-2.875214 6.645653,-3.548835 -2.195711,-0.932613 -3.623067,-3.085426 -3.627385,-5.470986 -1.18e-4,-3.289423 2.666511,-5.956069 5.95595,-5.955951 3.289424,-1.18e-4 5.95607,2.666528 5.955935,5.955951 -3.69e-4,1.960696 -0.965781,3.795594 -2.581424,4.906445 0.969275,0.0084 1.887102,0.03495 2.288526,0.09022 3.019864,0.42278 5.946828,1.400137 9.083669,3.048159 l -12.936541,11.738401 5.349354,-1.613526 3.683135,3.516927 -2.793268,4.972327 35.027251,-31.783988 -4.68499,2.240891 -3.93145,-3.994281 2.37721,-5.122321 -14.88454,13.506677 C 44.698856,50.309237 39.772604,48.3766 34.677016,47.663745 h -0.0017 l -0.0034,-10e-4 c -0.627139,-0.08687 -1.329863,-0.08603 -2.001216,-0.130723 6.40916,-11.649786 18.651212,-19.265671 32.398662,-19.464645 14.2173,-0.205744 27.03897,7.575627 33.60274,19.720561 1.12922,-1.353611 2.800088,-2.137457 4.562888,-2.140547 3.28942,-1.19e-4 5.95607,2.666511 5.95593,5.955951 -0.003,2.151016 -1.16645,4.133034 -3.04258,5.185162 0.47542,0.0168 0.87406,0.03965 1.09359,0.0704 3.64927,0.513361 6.46031,1.795193 9.00158,4.024188 l 0.001,0.0017 0.002,0.0017 c 4.46993,3.909916 6.96712,11.635387 5.53584,18.293019 l -3.3e-4,10e-4 v 0.0013 c -1.44865,6.756682 -6.71917,12.293601 -13.33387,14.06359 -1.65476,0.435516 -2.8827,0.591895 -4.97182,0.591895 -3.588938,0 -5.973668,-0.579242 -9.760208,-2.442066 l -0.006,-0.0017 -0.003,-0.0017 c -0.35919,-0.175752 -0.7194,-0.389663 -1.07788,-0.580755 l 9.939078,-9.018796 -6.382638,-6.745475 -29.12096,26.424466 6.5291,6.61273 11.82981,-10.734203 c 1.39328,0.875132 2.78579,1.688062 4.19341,2.377209 4.65642,2.290774 9.03201,3.395294 13.858888,3.395294 2.65838,0 4.98637,-0.27835 7.34548,-0.9 l 0.007,-0.002 0.009,-0.002 c 10.04947,-2.684235 17.8337,-10.880557 20.02309,-21.087293 v -0.001 C 133.01237,71.120795 129.80897,60.415299 122.36278,53.900469 118.59795,50.599855 113.99921,48.534128 108.93354,47.7483 101.64836,30.147649 84.273532,18.50408 64.934652,18.783956 Z m 33.73702,29.004395 c -0.0675,0.08149 -0.13291,0.164831 -0.19612,0.249835 0.1005,-0.02033 0.20237,-0.04655 0.30253,-0.06586 -0.0334,-0.06284 -0.0725,-0.121481 -0.10631,-0.183952 z"
     sodipodi:nodetypes="scccssccccsccscccsccccccscccccccccccccccccccccccccccsccccccccccccsccccccccccsccsccccscccc" />
  <path
     id="circle20631"
     style="fill:none;stroke:#e5d5ff;stroke-width:3.92257"
     d="m 33.679414,51.291799 a 5.9557298,5.9557298 0 0 1 -5.955733,5.955733 5.9557298,5.9557298 0 0 1 -5.955733,-5.955733 5.9557298,5.9557298 0 0 1 5.955733,-5.955732 5.9557298,5.9557298 0 0 1 5.955733,5.955732 z M 73.642454,108.304 a 5.9557298,5.9557298 0 0 1 -5.95574,5.95573 5.9557298,5.9557298 0 0 1 -5.95573,-5.95573 5.9557298,5.9557298 0 0 1 5.95573,-5.95574 5.9557298,5.9557298 0 0 1 5.95574,5.95574 z M 109.48208,51.291799 a 5.9557298,5.9557298 0 0 1 -5.95573,5.955733 5.9557298,5.9557298 0 0 1 -5.955736,-5.955733 5.9557298,5.9557298 0 0 1 5.955736,-5.955732 5.9557298,5.9557298 0 0 1 5.95573,5.955732 z m -1.40221,23.714893 a 5.9557298,5.9557298 0 0 1 -5.95573,5.955732 5.9557298,5.9557298 0 0 1 -5.955746,-5.955732 5.9557298,5.9557298 0 0 1 5.955746,-5.955733 5.9557298,5.9557298 0 0 1 5.95573,5.955733 z m -69.276102,0 a 5.9557298,5.9557298 0 0 1 -5.955733,5.955732 5.9557298,5.9557298 0 0 1 -5.955733,-5.955732 5.9557298,5.9557298 0 0 1 5.955733,-5.955733 5.9557298,5.9557298 0 0 1 5.955733,5.955733 z M 73.642454,43.309018 a 5.9557298,5.9557298 0 0 1 -5.95574,5.955733 5.9557298,5.9557298 0 0 1 -5.95573,-5.955733 5.9557298,5.9557298 0 0 1 5.95573,-5.955732 5.9557298,5.9557298 0 0 1 5.95574,5.955732 z" />
</svg>
